<mxfile host="app.diagrams.net" modified="2024-05-05T12:32:53.697Z" agent="Mozilla/5.0 (Windows NT 10.0; Win64; x64) AppleWebKit/537.36 (KHTML, like Gecko) Chrome/124.0.0.0 Safari/537.36 Edg/124.0.0.0" etag="4nHjpWCxH0W03uv8QNli" version="24.3.1" type="github">
  <diagram name="第 1 页" id="patkaxtpOkGg2e2rt3w9">
    <mxGraphModel dx="827" dy="595" grid="1" gridSize="10" guides="1" tooltips="1" connect="1" arrows="1" fold="1" page="1" pageScale="1" pageWidth="827" pageHeight="1169" math="0" shadow="0">
      <root>
        <mxCell id="0" />
        <mxCell id="1" parent="0" />
        <mxCell id="agE6GAdwe3rKI9LpFqBl-3" value="&lt;span style=&quot;font-size: 40px;&quot;&gt;&lt;font style=&quot;font-size: 40px;&quot;&gt;大模型微调分系统外部接口图&lt;/font&gt;&lt;/span&gt;" style="swimlane;whiteSpace=wrap;html=1;startSize=50;fontFamily=宋体;fontStyle=0;fontSize=40;" vertex="1" parent="1">
          <mxGeometry x="20" y="20" width="540" height="460" as="geometry">
            <mxRectangle x="20" y="20" width="560" height="60" as="alternateBounds" />
          </mxGeometry>
        </mxCell>
        <mxCell id="agE6GAdwe3rKI9LpFqBl-20" style="edgeStyle=orthogonalEdgeStyle;rounded=0;orthogonalLoop=1;jettySize=auto;html=1;entryX=0;entryY=0.5;entryDx=0;entryDy=0;fontSize=40;fontFamily=宋体;" edge="1" parent="agE6GAdwe3rKI9LpFqBl-3" source="agE6GAdwe3rKI9LpFqBl-15" target="agE6GAdwe3rKI9LpFqBl-16">
          <mxGeometry relative="1" as="geometry" />
        </mxCell>
        <mxCell id="agE6GAdwe3rKI9LpFqBl-31" value="E2" style="edgeLabel;html=1;align=center;verticalAlign=middle;resizable=0;points=[];fontSize=32;fontFamily=Times New Roman;" vertex="1" connectable="0" parent="agE6GAdwe3rKI9LpFqBl-20">
          <mxGeometry x="-0.0174" relative="1" as="geometry">
            <mxPoint as="offset" />
          </mxGeometry>
        </mxCell>
        <mxCell id="agE6GAdwe3rKI9LpFqBl-23" style="edgeStyle=orthogonalEdgeStyle;rounded=0;orthogonalLoop=1;jettySize=auto;html=1;entryX=1;entryY=0.5;entryDx=0;entryDy=0;fontSize=40;fontFamily=宋体;" edge="1" parent="agE6GAdwe3rKI9LpFqBl-3" source="agE6GAdwe3rKI9LpFqBl-15" target="agE6GAdwe3rKI9LpFqBl-18">
          <mxGeometry relative="1" as="geometry" />
        </mxCell>
        <mxCell id="agE6GAdwe3rKI9LpFqBl-32" value="E3" style="edgeLabel;html=1;align=center;verticalAlign=middle;resizable=0;points=[];fontSize=32;fontFamily=Times New Roman;" vertex="1" connectable="0" parent="agE6GAdwe3rKI9LpFqBl-23">
          <mxGeometry x="0.4462" relative="1" as="geometry">
            <mxPoint as="offset" />
          </mxGeometry>
        </mxCell>
        <mxCell id="agE6GAdwe3rKI9LpFqBl-24" style="edgeStyle=orthogonalEdgeStyle;rounded=0;orthogonalLoop=1;jettySize=auto;html=1;entryX=0;entryY=0.5;entryDx=0;entryDy=0;fontSize=40;fontFamily=宋体;" edge="1" parent="agE6GAdwe3rKI9LpFqBl-3" source="agE6GAdwe3rKI9LpFqBl-15" target="agE6GAdwe3rKI9LpFqBl-17">
          <mxGeometry relative="1" as="geometry" />
        </mxCell>
        <mxCell id="agE6GAdwe3rKI9LpFqBl-33" value="E4" style="edgeLabel;html=1;align=center;verticalAlign=middle;resizable=0;points=[];fontSize=32;fontFamily=Times New Roman;" vertex="1" connectable="0" parent="agE6GAdwe3rKI9LpFqBl-24">
          <mxGeometry x="0.409" y="1" relative="1" as="geometry">
            <mxPoint as="offset" />
          </mxGeometry>
        </mxCell>
        <mxCell id="agE6GAdwe3rKI9LpFqBl-15" value="&lt;font style=&quot;font-size: 40px;&quot;&gt;通用代码大模型微调分系统&lt;/font&gt;" style="rounded=1;whiteSpace=wrap;html=1;fillColor=none;dashed=1;dashPattern=1 1;strokeWidth=5;fontStyle=0;fontSize=40;fontFamily=宋体;" vertex="1" parent="agE6GAdwe3rKI9LpFqBl-3">
          <mxGeometry x="10" y="170" width="520" height="190" as="geometry" />
        </mxCell>
        <mxCell id="agE6GAdwe3rKI9LpFqBl-22" style="edgeStyle=orthogonalEdgeStyle;rounded=0;orthogonalLoop=1;jettySize=auto;html=1;entryX=0.5;entryY=0;entryDx=0;entryDy=0;fontSize=40;fontFamily=宋体;" edge="1" parent="agE6GAdwe3rKI9LpFqBl-3" source="agE6GAdwe3rKI9LpFqBl-4" target="agE6GAdwe3rKI9LpFqBl-5">
          <mxGeometry relative="1" as="geometry" />
        </mxCell>
        <mxCell id="agE6GAdwe3rKI9LpFqBl-30" value="E1" style="edgeLabel;html=1;align=center;verticalAlign=middle;resizable=0;points=[];fontSize=32;fontFamily=Times New Roman;labelBackgroundColor=default;" vertex="1" connectable="0" parent="agE6GAdwe3rKI9LpFqBl-22">
          <mxGeometry x="-0.4422" y="-1" relative="1" as="geometry">
            <mxPoint x="22" y="-4" as="offset" />
          </mxGeometry>
        </mxCell>
        <mxCell id="agE6GAdwe3rKI9LpFqBl-4" value="&lt;font style=&quot;font-size: 40px;&quot;&gt;外部系统&lt;/font&gt;" style="rounded=0;whiteSpace=wrap;html=1;fillColor=none;fontSize=40;fontFamily=宋体;fontStyle=0" vertex="1" parent="agE6GAdwe3rKI9LpFqBl-3">
          <mxGeometry x="10" y="70" width="180" height="50" as="geometry" />
        </mxCell>
        <mxCell id="agE6GAdwe3rKI9LpFqBl-5" value="数据层" style="rounded=0;whiteSpace=wrap;html=1;fillColor=none;fontSize=40;fontFamily=宋体;fontStyle=0" vertex="1" parent="agE6GAdwe3rKI9LpFqBl-3">
          <mxGeometry x="30" y="190" width="230" height="45" as="geometry" />
        </mxCell>
        <mxCell id="agE6GAdwe3rKI9LpFqBl-16" value="&lt;font style=&quot;font-size: 40px;&quot;&gt;安全系统&lt;/font&gt;" style="rounded=0;whiteSpace=wrap;html=1;fillColor=none;fontSize=40;fontFamily=宋体;fontStyle=0" vertex="1" parent="agE6GAdwe3rKI9LpFqBl-3">
          <mxGeometry x="350" y="70" width="180" height="50" as="geometry" />
        </mxCell>
        <mxCell id="agE6GAdwe3rKI9LpFqBl-17" value="&lt;font style=&quot;font-size: 40px;&quot;&gt;监控系统&lt;/font&gt;" style="rounded=0;whiteSpace=wrap;html=1;fillColor=none;fontSize=40;fontFamily=宋体;fontStyle=0" vertex="1" parent="agE6GAdwe3rKI9LpFqBl-3">
          <mxGeometry x="350" y="400" width="180" height="50" as="geometry" />
        </mxCell>
        <mxCell id="agE6GAdwe3rKI9LpFqBl-18" value="&lt;font style=&quot;font-size: 40px;&quot;&gt;开发平台&lt;/font&gt;" style="rounded=0;whiteSpace=wrap;html=1;fillColor=none;fontSize=40;fontFamily=宋体;fontStyle=0" vertex="1" parent="agE6GAdwe3rKI9LpFqBl-3">
          <mxGeometry x="10" y="400" width="180" height="50" as="geometry" />
        </mxCell>
      </root>
    </mxGraphModel>
  </diagram>
</mxfile>
